<!-- Generated by IcoMoon.io -->
<svg version="1.1" xmlns="http://www.w3.org/2000/svg" width="64" height="32" viewBox="0 0 64 32">
<title>foster_peters</title>
<path fill="#2196f3" d="M9.964 9.701h-0.002c-1.818 0-3.291 1.352-3.291 3.019v0.002c0 1.667 1.474 3.019 3.291 3.019h0.002c1.818 0 3.291-1.352 3.291-3.019v-0.002c0-1.667-1.474-3.018-3.291-3.018zM34.256 8.738c-0.005-2.316-1.009-4.535-2.794-6.173s-4.204-2.56-6.729-2.565c-2.525 0.004-4.946 0.926-6.732 2.564s-2.791 3.857-2.796 6.174v12.769s19.050-1.947 19.052-12.767v-0.002zM0 25.697c0.005 1.611 0.704 3.155 1.947 4.294 1.241 1.139 2.924 1.782 4.681 1.787 1.756-0.005 3.439-0.648 4.681-1.787s1.942-2.683 1.947-4.293v-8.886s-13.256 1.357-13.256 8.884zM6.628 27.289c-0.343 0-0.679-0.094-0.965-0.268-0.279-0.17-0.499-0.414-0.635-0.704l-0.004-0.010c-0.083-0.179-0.132-0.388-0.132-0.608 0-0.11 0.012-0.218 0.035-0.322l-0.002 0.010c0.067-0.309 0.232-0.592 0.475-0.815s0.553-0.375 0.889-0.436c0.102-0.020 0.219-0.031 0.339-0.031 0.239 0 0.467 0.044 0.677 0.126l-0.013-0.004c0.317 0.12 0.588 0.324 0.779 0.585s0.293 0.57 0.293 0.885c0 0.209-0.044 0.418-0.13 0.611-0.093 0.203-0.22 0.375-0.375 0.517l-0.001 0.001c-0.161 0.148-0.353 0.266-0.564 0.347s-0.437 0.122-0.666 0.122v-0.005zM20.090 26.404h-1.317v1.361h-0.686v-3.33h2.167v0.556h-1.481v0.86h1.317v0.553zM23.387 26.176c0 0.328-0.058 0.615-0.174 0.862s-0.281 0.437-0.498 0.571c-0.204 0.127-0.451 0.202-0.715 0.202-0.009 0-0.018 0-0.027 0h0.001c-0.276 0-0.521-0.066-0.738-0.199-0.219-0.137-0.391-0.33-0.499-0.559l-0.003-0.008c-0.114-0.241-0.181-0.524-0.181-0.823 0-0.010 0-0.019 0-0.029v0.001-0.164c0-0.328 0.059-0.617 0.176-0.865 0.119-0.25 0.286-0.442 0.501-0.574 0.216-0.134 0.463-0.201 0.741-0.201s0.523 0.067 0.738 0.201c0.216 0.133 0.383 0.324 0.501 0.574 0.119 0.248 0.178 0.535 0.178 0.862v0.148zM22.693 26.025c0-0.349-0.062-0.614-0.187-0.796-0.111-0.165-0.297-0.272-0.509-0.272-0.009 0-0.019 0-0.028 0.001h0.001c-0.008 0-0.017-0.001-0.026-0.001-0.21 0-0.396 0.106-0.506 0.268l-0.001 0.002c-0.125 0.178-0.188 0.44-0.19 0.787v0.162c0 0.34 0.062 0.603 0.187 0.791s0.304 0.281 0.539 0.281c0.008 0 0.018 0.001 0.027 0.001 0.209 0 0.394-0.106 0.502-0.268l0.001-0.002c0.123-0.182 0.187-0.445 0.187-0.791v-0.162zM25.612 26.891c0-0.006 0.001-0.013 0.001-0.019 0-0.113-0.053-0.213-0.136-0.277l-0.001-0.001c-0.091-0.070-0.256-0.144-0.494-0.22-0.22-0.068-0.407-0.146-0.585-0.238l0.020 0.009c-0.378-0.204-0.567-0.479-0.567-0.825 0-0.18 0.050-0.34 0.151-0.48 0.102-0.142 0.248-0.253 0.437-0.332 0.19-0.080 0.404-0.119 0.64-0.119 0.238 0 0.45 0.043 0.636 0.13s0.329 0.207 0.432 0.364c0.104 0.157 0.156 0.336 0.156 0.535h-0.687c0-0.152-0.047-0.271-0.144-0.354-0.096-0.086-0.231-0.128-0.405-0.128-0.167 0-0.297 0.036-0.39 0.107-0.085 0.061-0.141 0.16-0.141 0.271 0 0.003 0 0.006 0 0.008v0c0 0.108 0.055 0.199 0.163 0.272s0.271 0.141 0.482 0.205c0.39 0.117 0.674 0.263 0.853 0.437s0.268 0.39 0.268 0.649c0 0.288-0.109 0.514-0.328 0.679-0.218 0.163-0.511 0.244-0.88 0.244-0.257 0-0.489-0.047-0.7-0.139-0.198-0.084-0.361-0.217-0.48-0.383l-0.002-0.003c-0.103-0.154-0.165-0.344-0.165-0.547 0-0.007 0-0.014 0-0.021v0.001h0.688c0 0.367 0.219 0.551 0.659 0.551 0.163 0 0.29-0.033 0.382-0.098 0.084-0.060 0.138-0.157 0.138-0.266 0-0.004 0-0.009 0-0.013v0.001zM29.273 24.991h-1.019v2.774h-0.687v-2.774h-1.005v-0.556h2.711v0.556zM31.669 26.322h-1.316v0.892h1.545v0.551h-2.232v-3.33h2.227v0.556h-1.541v0.794h1.317v0.537zM33.533 26.546h-0.546v1.219h-0.686v-3.33h1.237c0.393 0 0.696 0.087 0.91 0.263s0.32 0.423 0.32 0.743c0 0.227-0.049 0.417-0.148 0.57-0.11 0.16-0.262 0.284-0.44 0.359l-0.007 0.002 0.72 1.36v0.031h-0.736l-0.624-1.218zM32.987 25.99h0.553c0.172 0 0.306-0.043 0.4-0.13 0.088-0.086 0.142-0.206 0.142-0.338 0-0.009 0-0.018-0.001-0.027v0.001c0-0.156-0.044-0.28-0.135-0.37-0.088-0.090-0.225-0.135-0.409-0.135h-0.551v0.999zM37.143 26.591v1.174h-0.686v-3.33h1.299c0.25 0 0.47 0.046 0.659 0.137s0.337 0.222 0.439 0.39 0.153 0.359 0.153 0.574c0 0.326-0.112 0.584-0.336 0.773-0.223 0.187-0.532 0.281-0.926 0.281h-0.601zM37.143 26.036h0.613c0.182 0 0.32-0.043 0.414-0.128 0.097-0.086 0.144-0.208 0.144-0.366 0-0.007 0.001-0.016 0.001-0.025 0-0.143-0.055-0.274-0.145-0.371v0c-0.096-0.101-0.229-0.152-0.398-0.155h-0.629v1.045zM41.483 26.322h-1.317v0.892h1.545v0.551h-2.231v-3.33h2.227v0.556h-1.541v0.794h1.317v0.537zM44.667 24.991h-1.020v2.774h-0.686v-2.774h-1.006v-0.556h2.712v0.556zM47.063 26.322h-1.317v0.892h1.545v0.551h-2.232v-3.33h2.227v0.556h-1.541v0.794h1.317v0.537zM48.926 26.546h-0.546v1.219h-0.687v-3.33h1.238c0.393 0 0.696 0.087 0.91 0.263s0.32 0.423 0.32 0.743c0 0.227-0.050 0.417-0.148 0.57-0.11 0.16-0.262 0.284-0.44 0.359l-0.007 0.002 0.72 1.36v0.031h-0.736l-0.624-1.218zM48.38 25.99h0.553c0.172 0 0.305-0.043 0.4-0.13 0.088-0.086 0.143-0.206 0.143-0.339 0-0.009 0-0.017-0.001-0.026v0.001c0-0.156-0.045-0.28-0.135-0.37-0.088-0.090-0.225-0.135-0.409-0.135h-0.551v0.999zM52.411 26.892c0-0.006 0.001-0.013 0.001-0.020 0-0.113-0.054-0.213-0.137-0.277l-0.001-0.001c-0.091-0.070-0.256-0.144-0.494-0.22-0.22-0.068-0.407-0.146-0.585-0.238l0.020 0.009c-0.378-0.204-0.567-0.479-0.567-0.825 0-0.18 0.050-0.34 0.151-0.48 0.102-0.142 0.248-0.253 0.437-0.332s0.404-0.119 0.64-0.119c0.238 0 0.45 0.043 0.636 0.13s0.329 0.207 0.432 0.364c0.104 0.157 0.156 0.336 0.156 0.535h-0.687c0-0.152-0.048-0.271-0.144-0.354-0.096-0.086-0.231-0.128-0.405-0.128-0.167 0-0.297 0.036-0.39 0.107-0.086 0.061-0.141 0.16-0.141 0.271 0 0.003 0 0.006 0 0.008v0c0 0.108 0.055 0.199 0.163 0.272s0.27 0.141 0.482 0.205c0.39 0.117 0.674 0.263 0.853 0.437s0.267 0.39 0.267 0.649c0 0.288-0.109 0.514-0.326 0.679-0.219 0.163-0.512 0.244-0.88 0.244-0.257 0-0.489-0.047-0.7-0.139-0.198-0.084-0.361-0.217-0.48-0.383l-0.002-0.003c-0.103-0.154-0.165-0.344-0.165-0.547 0-0.007 0-0.014 0-0.021v0.001h0.688c0 0.367 0.219 0.551 0.659 0.551 0.163 0 0.29-0.033 0.382-0.098 0.084-0.060 0.138-0.157 0.138-0.266 0-0.004 0-0.009 0-0.013v0.001z"></path>
</svg>
